<svg width="413" height="65" viewBox="0 0 413 65" fill="none" xmlns="http://www.w3.org/2000/svg">
<path fill-rule="evenodd" clip-rule="evenodd" d="M159.188 14.4955C161.917 14.5328 164.46 14.6635 164.983 14.7756C165.507 14.9063 166.722 15.3731 167.694 15.8399C169.19 16.5308 169.694 16.9043 170.872 18.0993C171.751 18.9956 172.536 20.0226 172.966 20.8442C173.34 21.5724 173.845 22.8235 174.088 23.6451C174.48 25.0269 174.499 25.5123 174.518 29.807C174.518 33.1121 174.443 34.7926 174.256 35.5956C174.106 36.2118 173.789 37.2201 173.527 37.8363C173.284 38.4525 172.76 39.4048 172.387 39.965C172.013 40.5251 171.34 41.3654 170.872 41.8322C170.405 42.2804 169.526 42.9899 168.909 43.3821C168.292 43.7742 167.32 44.2783 166.759 44.4837C166.198 44.7078 165.058 45.0066 164.236 45.156C163.039 45.38 161.674 45.4174 157.505 45.3427C154.215 45.3053 151.99 45.1746 151.523 45.0439C151.112 44.9132 150.308 44.6331 149.747 44.4277C149.186 44.2036 148.214 43.7182 147.597 43.326C146.98 42.9526 146.045 42.187 145.541 41.6268C145.017 41.0853 144.288 40.133 143.914 39.5168C143.54 38.9006 142.998 37.7242 142.718 36.9026C142.194 35.4462 142.194 35.2968 142.119 30.554C142.063 26.6327 142.119 25.4376 142.344 24.2986C142.512 23.533 142.923 22.3193 143.26 21.5911C143.578 20.8815 144.232 19.8172 144.699 19.2383C145.167 18.6595 145.914 17.8379 146.382 17.4271C146.849 17.0163 147.765 16.4001 148.438 16.0266C149.111 15.6532 150.158 15.2237 150.775 15.0557C151.392 14.8689 152.439 14.6635 153.112 14.5702C153.785 14.4955 156.514 14.4581 159.188 14.4955ZM152.121 20.9189C151.579 21.0683 150.756 21.5164 150.252 21.9085C149.635 22.4127 149.186 22.9915 148.756 23.8691L148.158 25.1389V34.8487C148.924 36.4358 149.523 37.2388 149.971 37.6309C150.401 38.0417 151.243 38.5832 151.803 38.8446L152.832 39.3301H163.675C165.563 38.4338 166.385 37.8923 166.741 37.5375C167.077 37.1827 167.563 36.5292 167.788 36.0624C168.031 35.5956 168.311 34.7179 168.423 34.1018C168.535 33.4856 168.629 31.637 168.629 29.9938C168.629 28.3506 168.535 26.4833 168.442 25.8298C168.33 25.1949 168.087 24.3173 167.862 23.8878C167.638 23.4397 167.152 22.7675 166.778 22.3753C166.404 21.9832 165.731 21.4604 165.264 21.2176C164.796 20.9936 163.974 20.6948 163.432 20.5828C162.852 20.4707 160.758 20.396 158.197 20.396C155.86 20.4147 153.766 20.4707 153.523 20.5267C153.299 20.5828 152.663 20.7508 152.121 20.9189ZM37.951 14.9623H43.9334V26.9128H62.0675V14.9623H68.0499V45.0252L62.161 44.9319L62.0675 32.888H43.9334V45.0252L38.0445 44.9319L37.951 14.9623ZM101.42 15.0557L102.056 15.5225C102.411 15.7839 102.823 16.2694 102.953 16.6055C103.14 17.0723 103.196 20.0413 103.196 45.0252H97.401V37.7429H79.0799V45.0252L73.191 44.9319V36.4358C73.2097 30.0871 73.2658 27.6597 73.4527 26.8194C73.5836 26.2032 73.9014 25.1202 74.1631 24.392C74.4062 23.6637 74.8362 22.7114 75.0979 22.2446C75.3783 21.7778 75.9392 20.9562 76.3505 20.396C76.7804 19.8359 77.6591 18.9209 78.3321 18.3794C79.0051 17.8379 80.0895 17.091 80.7625 16.7362C81.4355 16.4001 82.3515 15.9706 82.8189 15.8026C83.2863 15.6345 84.2023 15.3731 84.8754 15.2424C85.7914 15.0557 87.96 14.9996 101.42 15.0557ZM84.5949 21.5351C83.978 21.7778 83.0993 22.2446 82.632 22.5434C82.1646 22.8608 81.4916 23.4957 81.1177 23.9438C80.7438 24.392 80.239 25.1389 80.0147 25.6057C79.7903 26.0725 79.4912 26.9875 79.3417 27.6597C79.2108 28.3319 79.0799 29.527 79.0799 30.3299V31.7677H97.401L97.3075 20.8442C90.0726 20.8068 87.4553 20.8629 86.8383 20.9375C86.2214 21.0309 85.2119 21.2923 84.5949 21.5351ZM110.936 14.9436L131.519 15.0557L132.548 15.5225C133.108 15.7839 133.95 16.3441 134.417 16.7735C134.884 17.1843 135.501 17.9873 135.819 18.5288C136.305 19.4251 136.38 19.7425 136.436 21.4977C136.492 22.5807 136.417 23.9999 136.305 24.6721C136.193 25.3443 135.782 26.5207 134.697 28.6867L136.025 29.9938C136.847 30.7967 137.539 31.693 137.838 32.3279C138.1 32.888 138.455 33.8964 138.605 34.5686C138.773 35.2408 138.904 36.4918 138.904 37.3695C138.904 38.2471 138.773 39.4235 138.623 39.9836C138.474 40.5438 138.137 41.3467 137.894 41.7575C137.651 42.1683 137.016 42.9152 136.455 43.4007C135.875 43.9236 135.053 44.4277 134.511 44.6144C133.669 44.8945 132.417 44.9319 110.955 44.9319L110.263 44.5211C109.871 44.2783 109.403 43.8115 109.235 43.4941C108.917 42.9152 108.898 41.9069 108.898 29.8631C108.898 16.9603 108.898 16.8482 109.291 16.3254C109.515 16.0453 109.964 15.6158 110.319 15.3731L110.936 14.9436ZM114.769 39.05C130.454 39.05 132.51 38.994 132.697 38.8073C132.828 38.6765 132.921 38.0604 132.921 37.3134C132.903 36.6039 132.791 35.7449 132.622 35.3528C132.454 34.9794 132.136 34.4565 131.912 34.2138C131.688 33.971 131.164 33.5976 130.753 33.3735C130.042 33.0001 129.781 32.9814 123.144 32.9254L116.264 32.888V26.9128L127.762 26.8194C129.239 25.9792 129.594 25.587 129.968 24.8401C130.398 23.9999 130.491 23.5891 130.491 22.4687C130.472 21.311 130.435 21.0869 130.099 20.9375C129.874 20.8255 126.864 20.7508 122.247 20.7508H114.769V39.05ZM176.462 14.9623H206V20.7508H194.222V45.0252L188.333 44.9319L188.24 20.7508H176.462V14.9623Z" fill="white"/>
<path d="M0 29.7135V49.6932H9.34748V9.73376H0V29.7135Z" fill="#072F57"/>
<path d="M2.33718 49.8241C3.68322 49.8614 5.81444 49.8614 7.1044 49.8241C8.39435 49.8054 7.29135 49.7681 4.67405 49.7681C2.05675 49.7681 0.991142 49.8054 2.33718 49.8241Z" fill="#072F57"/>
<path d="M11.5909 29.7136V49.6933H20.7514V9.73389H11.5909V29.7136Z" fill="#456381"/>
<path d="M20.7514 29.7135V49.6932L11.4974 49.7866L20.9384 49.8799C20.9384 18.7713 20.901 9.73376 20.8449 9.73376C20.7888 9.73376 20.7514 18.7153 20.7514 29.7135Z" fill="#456381"/>
<path d="M23.1821 29.7136V49.6933H32.3426V9.73389H23.1821V29.7136Z" fill="#8FB7E1"/>
<path d="M32.3425 29.7135V49.6932L23.0884 49.7866L32.5294 49.8799C32.5294 18.7713 32.492 9.73376 32.4359 9.73376C32.3798 9.73376 32.3425 18.7153 32.3425 29.7135Z" fill="#8FB7E1"/>
</svg>
